<svg width="20" height="24" viewBox="0 0 20 24" fill="none" xmlns="http://www.w3.org/2000/svg">
<path d="M17.125 4.8H14.75C14.75 2.148 12.6244 0 10 0C7.37563 0 5.25 2.148 5.25 4.8H2.875C0.5 4.8 0.5 4.8 0.5 7.2V21.6C0.5 24 0.5 24 2.875 24H17.125C19.5 24 19.5 24 19.5 21.6V7.2C19.5 4.8 19.5 4.8 17.125 4.8ZM10 1.2C12.375 1.2 13.5625 3.48 13.5625 4.8H6.4375C6.4375 3.48 7.625 1.2 10 1.2ZM18.3125 22.8H1.6875V6H5.25V9.6C5.25 10.26 5.19063 10.8 5.84375 10.8C6.49687 10.8 6.4375 10.26 6.4375 9.6V6H13.5625V9.6C13.5625 10.26 13.5031 10.8 14.1562 10.8C14.8094 10.8 14.75 10.26 14.75 9.6V6H18.3125V22.8Z" fill="#ffffff"/>
</svg>
