<svg width="32" height="32" viewBox="0 0 32 32" fill="none" xmlns="http://www.w3.org/2000/svg">
<circle cx="16" cy="16" r="16" fill="#1B1B1C"/>
<path d="M23.8001 11.1681C23.2264 11.4156 22.602 11.5937 21.9589 11.6631C22.6266 11.2664 23.1266 10.6397 23.3651 9.90061C22.7386 10.2733 22.0522 10.5347 21.3364 10.6731C21.0372 10.3533 20.6754 10.0985 20.2734 9.92462C19.8715 9.75075 19.4381 9.66152 19.0001 9.66248C17.2282 9.66248 15.8032 11.0987 15.8032 12.8612C15.8032 13.1087 15.8332 13.3562 15.882 13.5944C13.2289 13.4556 10.8626 12.1881 9.28949 10.2475C9.00285 10.7371 8.85264 11.2945 8.85449 11.8619C8.85449 12.9719 9.41887 13.9506 10.2795 14.5262C9.77231 14.5063 9.27701 14.3669 8.83387 14.1194V14.1587C8.83387 15.7131 9.93262 17.0012 11.397 17.2975C11.122 17.3689 10.8392 17.4054 10.5551 17.4062C10.347 17.4062 10.1501 17.3856 9.95137 17.3575C10.3564 18.625 11.5357 19.5456 12.9401 19.5756C11.8414 20.4362 10.4651 20.9425 8.97074 20.9425C8.70262 20.9425 8.45512 20.9331 8.19824 20.9031C9.61574 21.8125 11.2976 22.3375 13.1089 22.3375C18.9889 22.3375 22.2064 17.4662 22.2064 13.2381C22.2064 13.0994 22.2064 12.9606 22.197 12.8219C22.8195 12.3662 23.3651 11.8019 23.8001 11.1681Z" fill="white"/>
</svg>
