<svg width="24" height="24" viewBox="0 0 24 24" fill="none" xmlns="http://www.w3.org/2000/svg">
<path fill-rule="evenodd" clip-rule="evenodd" d="M16.9982 9.47166H22.3366V8.34666H16.8942C16.9544 8.71385 16.9897 9.08945 16.9982 9.47166ZM15.6275 5.16974H22.3363V4.04474L14.7061 4.04474C15.0459 4.39051 15.3545 4.76703 15.6275 5.16974ZM15.8582 13.7736C16.0737 13.4159 16.2619 13.0399 16.4201 12.6486H22.3365V13.7736H15.8582Z" fill="white"/>
<path fill-rule="evenodd" clip-rule="evenodd" d="M14.6867 9.44921C14.6867 12.8919 11.8958 15.6827 8.4532 15.6827C5.01055 15.6827 2.21973 12.8919 2.21973 9.44921C2.21973 6.00653 5.01055 3.2157 8.4532 3.2157C11.8958 3.2157 14.6867 6.00653 14.6867 9.44921ZM11.7344 16.0374C10.7466 16.5304 9.63227 16.8077 8.4532 16.8077C4.38923 16.8077 1.09473 13.5132 1.09473 9.44921C1.09473 5.38522 4.38923 2.0907 8.4532 2.0907C12.5172 2.0907 15.8117 5.38522 15.8117 9.44921C15.8117 11.9279 14.5861 14.1203 12.708 15.4536L17.3549 21.271C17.5488 21.5137 17.5092 21.8676 17.2665 22.0615C17.0238 22.2554 16.6698 22.2158 16.4759 21.9731L11.7344 16.0374Z" fill="white"/>
</svg>
