<svg width="24" height="24" viewBox="0 0 24 24" fill="none" xmlns="http://www.w3.org/2000/svg">
<circle cx="12" cy="12" r="11.35" stroke="white" stroke-width="1.3"/>
<circle cx="12" cy="9" r="3.45" stroke="white" stroke-width="1.1"/>
<mask id="path-3-inside-1" fill="white">
<path fill-rule="evenodd" clip-rule="evenodd" d="M4.02051 20.9625C4.31443 17.0712 7.77478 14 12.0003 14C16.2258 14 19.6861 17.0712 19.98 20.9625C17.8595 22.8519 15.0639 24 12.0003 24C8.93661 24 6.1411 22.8519 4.02051 20.9625Z"/>
</mask>
<path d="M4.02051 20.9625L2.92363 20.8796L2.88267 21.422L3.28875 21.7838L4.02051 20.9625ZM19.98 20.9625L20.7118 21.7838L21.1179 21.422L21.0769 20.8796L19.98 20.9625ZM5.11738 21.0453C5.36386 17.7822 8.29392 15.1 12.0003 15.1V12.9C7.25565 12.9 3.26501 16.3602 2.92363 20.8796L5.11738 21.0453ZM12.0003 15.1C15.7066 15.1 18.6367 17.7822 18.8832 21.0453L21.0769 20.8796C20.7355 16.3602 16.7449 12.9 12.0003 12.9V15.1ZM19.2483 20.1412C17.3214 21.858 14.7838 22.9 12.0003 22.9V25.1C15.3441 25.1 18.3975 23.8458 20.7118 21.7838L19.2483 20.1412ZM12.0003 22.9C9.21673 22.9 6.67918 21.858 4.75227 20.1412L3.28875 21.7838C5.60301 23.8458 8.6565 25.1 12.0003 25.1V22.9Z" fill="white" mask="url(#path-3-inside-1)"/>
</svg>
